<svg width="24" height="24" viewBox="0 0 24 24" fill="none" xmlns="http://www.w3.org/2000/svg">
<path d="M5.26611 9.765C5.734 8.34945 6.63697 7.11781 7.84623 6.2458C9.05548 5.37378 10.5092 4.90594 12.0001 4.909C13.6901 4.909 15.2181 5.509 16.4181 6.491L19.9101 3C17.7821 1.145 15.0551 0 12.0001 0C7.27011 0 3.19811 2.698 1.24011 6.65L5.26611 9.765Z" fill="#EA4335"/>
<path d="M16.0401 18.013C14.9501 18.716 13.5661 19.091 12.0001 19.091C10.5152 19.0941 9.06692 18.6299 7.86036 17.7644C6.65379 16.8988 5.75006 15.6756 5.27712 14.268L1.23712 17.335C2.22837 19.3413 3.76239 21.0294 5.66494 22.2076C7.5675 23.3857 9.76233 24.0067 12.0001 24C14.9331 24 17.7351 22.957 19.8341 21L16.0411 18.013H16.0401Z" fill="#34A853"/>
<path d="M19.8341 21C22.0291 18.952 23.4541 15.904 23.4541 12C23.4541 11.29 23.3451 10.527 23.1821 9.81799H12.0001V14.455H18.4361C18.1191 16.014 17.2661 17.221 16.0411 18.013L19.8341 21Z" fill="#4A90E2"/>
<path d="M5.27712 14.268C5.03247 13.5369 4.90819 12.771 4.90912 12C4.90912 11.218 5.03412 10.467 5.26612 9.76502L1.24012 6.65002C0.416494 8.31271 -0.00807994 10.1445 0.000116455 12C0.000116455 13.92 0.445116 15.73 1.23712 17.335L5.27712 14.268Z" fill="#FBBC05"/>
</svg>
