<svg width="20" height="18" viewBox="0 0 20 18" fill="none" xmlns="http://www.w3.org/2000/svg">
<path d="M10.5597 9.57454L19.8267 2.65419C19.9375 2.57287 20 2.44547 20 2.31264V0.217293C20 0.0356773 19.7813 -0.0646178 19.6335 0.0465199L10 7.24065L0.366478 0.0465199C0.332981 0.0214917 0.29278 0.00596213 0.250469 0.00170668C0.208158 -0.00254877 0.165447 0.00464191 0.127218 0.0224561C0.0889893 0.0402704 0.0567837 0.0679895 0.0342865 0.102444C0.0117893 0.136899 -9.15527e-05 0.176698 0 0.217293V2.31264C0 2.44547 0.06534 2.57287 0.173294 2.65419L9.4375 9.57454C9.76989 9.82122 10.2301 9.82122 10.5597 9.57454ZM10.5597 17.815L19.8267 10.8946C19.9375 10.8133 20 10.6859 20 10.5531V8.45775C20 8.27613 19.7813 8.17584 19.6335 8.28697L10 15.4811L0.366478 8.28697C0.332981 8.26194 0.29278 8.24642 0.250469 8.24216C0.208158 8.2379 0.165447 8.24509 0.127218 8.26291C0.0889893 8.28072 0.0567837 8.30844 0.0342865 8.3429C0.0117893 8.37735 -9.15527e-05 8.41715 0 8.45775V10.5531C0 10.6859 0.06534 10.8133 0.173294 10.8946L9.4375 17.815C9.76989 18.0617 10.2301 18.0617 10.5597 17.815Z" fill="#FE4E0E"/>
</svg>
