<svg width="545" height="23" viewBox="0 0 545 23" fill="none" xmlns="http://www.w3.org/2000/svg">
<path d="M268.94 19.2C267.94 19.2 267.047 18.9533 266.26 18.46C265.487 17.9667 264.88 17.3133 264.44 16.5C264 15.6733 263.78 14.78 263.78 13.82C263.78 12.8467 264 11.9533 264.44 11.14C264.893 10.3133 265.507 9.65333 266.28 9.16C267.067 8.65333 267.953 8.4 268.94 8.4C269.94 8.4 270.827 8.65333 271.6 9.16C272.387 9.65333 273 10.3133 273.44 11.14C273.893 11.9533 274.12 12.8467 274.12 13.82C274.12 14.78 273.9 15.6733 273.46 16.5C273.02 17.3133 272.407 17.9667 271.62 18.46C270.847 18.9533 269.953 19.2 268.94 19.2ZM265.16 13.84C265.16 14.6133 265.327 15.32 265.66 15.96C266.007 16.5867 266.467 17.0867 267.04 17.46C267.613 17.82 268.247 18 268.94 18C269.633 18 270.267 17.8133 270.84 17.44C271.413 17.0667 271.873 16.56 272.22 15.92C272.567 15.28 272.74 14.5733 272.74 13.8C272.74 13.0267 272.567 12.32 272.22 11.68C271.873 11.04 271.413 10.5333 270.84 10.16C270.267 9.78667 269.633 9.6 268.94 9.6C268.26 9.6 267.633 9.79333 267.06 10.18C266.487 10.5533 266.027 11.06 265.68 11.7C265.333 12.34 265.16 13.0533 265.16 13.84ZM281.595 9.78C280.688 9.80667 279.888 10.06 279.195 10.54C278.515 11.02 278.035 11.68 277.755 12.52V19H276.395V8.58H277.675V11.08C278.035 10.3467 278.508 9.75333 279.095 9.3C279.695 8.84667 280.328 8.59333 280.995 8.54C281.128 8.52667 281.241 8.52 281.335 8.52C281.428 8.52 281.515 8.52667 281.595 8.54V9.78Z" fill="black"/>
<line y1="11.5" x2="233" y2="11.5" stroke="black"/>
<line x1="312" y1="11.5" x2="545" y2="11.5" stroke="black"/>
</svg>
